 <svg  version="1.0" xmlns="http://www.w3.org/2000/svg"  width="174.000000pt" height="148.000000pt" viewBox="0 0 174.000000 148.000000"  preserveAspectRatio="xMidYMid meet">  <g transform="translate(0.000000,148.000000) scale(0.100000,-0.100000)" fill="#1c1c1c" stroke="none"> <path d="M573 1440 c0 -25 2 -35 4 -22 2 12 2 32 0 45 -2 12 -4 2 -4 -23z"/> <path d="M984 1325 c-17 -9 -44 -29 -59 -45 -24 -25 -28 -38 -28 -88 0 -32 5 -67 12 -77 12 -19 12 -19 8 2 -4 19 -2 21 13 13 24 -13 30 -13 30 0 0 6 -8 10 -17 10 -15 0 -16 2 -3 10 12 8 11 10 -7 10 -19 0 -23 6 -23 30 0 32 24 53 74 66 19 4 31 2 36 -6 5 -8 28 -21 52 -30 42 -15 43 -17 54 -75 7 -33 12 -50 13 -37 2 35 2 35 19 64 15 26 15 31 -4 74 -32 78 -105 112 -170 79z m86 -36 c0 -5 7 -9 15 -9 9 0 12 -6 9 -15 -4 -9 0 -15 9 -15 9 0 18 -4 22 -10 3 -5 -7 -5 -25 1 -16 6 -30 15 -30 19 0 4 -8 7 -17 6 -11 0 -18 7 -19 20 -1 16 3 20 17 17 11 -3 19 -9 19 -14z"/> <path d="M1018 1193 c-30 -8 -20 -24 10 -17 34 8 53 24 27 23 -11 -1 -28 -3 -37 -6z"/> <path d="M1023 1163 c-19 -7 -15 -22 5 -18 9 2 20 4 25 4 4 1 7 6 7 11 0 10 -16 12 -37 3z"/> <path d="M1066 1121 c-15 -6 -16 -10 -7 -15 8 -5 20 -2 29 8 17 17 9 19 -22 7z"/> <path d="M965 1098 c-22 -6 -41 -11 -42 -12 -1 -1 2 -18 7 -38 7 -26 25 -47 60 -74 28 -21 50 -44 50 -51 0 -7 11 -2 25 11 14 13 25 28 25 33 0 5 9 18 20 28 11 10 19 30 19 44 -1 21 -2 22 -6 6 -5 -22 -62 -85 -76 -85 -4 0 -5 5 -1 12 4 7 3 8 -5 4 -14 -9 -91 65 -91 88 0 16 7 19 43 19 9 0 17 6 17 13 0 8 -1 14 -2 13 -2 -1 -21 -6 -43 -11z"/> <path d="M1161 1053 c5 -21 9 -41 9 -44 0 -4 8 -9 18 -12 35 -9 33 -44 -4 -72 -19 -14 -52 -53 -74 -85 -30 -44 -47 -60 -63 -60 -13 0 -28 -5 -35 -12 -17 -17 -15 -48 3 -48 8 0 15 -4 15 -10 0 -5 8 -10 18 -10 17 0 42 36 42 62 0 12 87 123 119 152 17 15 23 16 36 6 11 -9 15 -9 15 -1 0 15 -93 171 -101 171 -4 0 -3 -17 2 -37z"/> <path d="M565 960 c0 -26 3 -46 8 -43 4 2 7 22 7 43 0 21 -3 41 -7 43 -5 3 -8 -17 -8 -43z"/> <path d="M1634 996 c-3 -8 -4 -29 -1 -48 3 -30 4 -30 5 9 2 30 7 43 20 46 16 4 16 5 -1 6 -10 0 -20 -5 -23 -13z"/> <path d="M473 955 c0 -27 2 -38 4 -22 2 15 2 37 0 50 -2 12 -4 0 -4 -28z"/> <path d="M703 955 c0 -27 2 -38 4 -22 2 15 2 37 0 50 -2 12 -4 0 -4 -28z"/> <path d="M980 910 c0 -6 -15 -26 -32 -46 -33 -35 -158 -266 -158 -291 0 -21 35 -15 58 10 23 24 112 212 112 237 0 8 9 30 20 48 22 36 25 52 10 52 -5 0 -10 -5 -10 -10z m-59 -153 c-25 -66 -70 -154 -83 -165 -32 -26 -27 7 12 78 22 40 40 76 40 79 0 10 22 31 32 31 4 0 4 -10 -1 -23z"/> <path d="M1325 802 c3 -29 2 -41 -5 -37 -6 4 -10 -6 -10 -24 0 -39 10 -62 23 -54 5 3 8 2 4 -3 -3 -5 -6 -29 -8 -54 -1 -25 -7 -51 -12 -58 -14 -18 -13 -130 1 -144 9 -9 12 -2 13 30 1 23 3 54 5 70 2 15 6 77 9 137 6 91 4 116 -10 145 l-16 35 6 -43z"/> <path d="M619 628 c-12 -29 -25 -56 -27 -60 -2 -5 1 -8 6 -8 13 0 72 107 64 115 -12 12 -20 3 -43 -47z"/> <path d="M548 584 c-21 -11 -28 -22 -27 -42 2 -23 2 -24 6 -4 3 14 12 22 24 22 11 0 22 7 26 15 8 23 1 25 -29 9z"/> <path d="M320 565 c0 -3 19 -15 43 -25 23 -10 56 -34 74 -53 31 -33 91 -55 103 -36 14 21 252 -52 279 -87 12 -16 21 -20 28 -13 6 6 29 12 52 14 23 1 44 5 47 7 2 3 49 3 103 1 127 -6 165 9 65 26 -38 7 -143 27 -234 45 -130 26 -166 36 -168 49 -5 24 -22 21 -22 -4 0 -20 -3 -21 -110 -16 -102 5 -113 7 -134 30 -31 34 -126 80 -126 62z m555 -147 c14 -2 39 -28 28 -29 -42 -4 -61 -4 -57 2 2 4 -11 9 -29 13 -25 5 -29 9 -17 17 8 5 26 7 40 4 14 -3 30 -6 35 -7z"/> <path d="M646 535 c31 -26 37 -29 47 -19 6 6 -54 44 -70 44 -3 0 7 -11 23 -25z"/> <path d="M560 520 c0 -23 10 -26 28 -8 7 7 12 8 12 2 0 -5 -5 -15 -12 -22 -9 -9 -5 -12 20 -12 38 0 39 2 8 34 -28 31 -56 34 -56 6z"/> <path d="M620 403 c8 -3 21 -11 29 -17 11 -8 13 -8 8 1 -5 7 1 13 15 16 13 2 3 5 -22 5 -25 0 -38 -2 -30 -5z"/> <path d="M717 364 c5 -13 50 -31 57 -23 2 2 -11 12 -30 21 -27 14 -32 14 -27 2z"/> <path d="M957 344 c3 -8 11 -14 19 -14 8 0 16 0 19 0 15 0 1 16 -19 21 -19 5 -23 3 -19 -7z"/> <path d="M1180 330 c8 -6 24 -16 35 -22 20 -11 20 -11 1 11 -11 11 -26 21 -35 21 -14 0 -14 -2 -1 -10z"/> <path d="M810 310 c19 -13 30 -13 30 0 0 6 -10 10 -22 10 -19 0 -20 -2 -8 -10z"/> <path d="M1010 275 c-45 -17 -31 -17 45 0 48 11 53 13 25 13 -19 0 -51 -6 -70 -13z"/> <path d="M1060 241 c-36 -9 -71 -20 -78 -24 -8 -6 -20 -3 -32 8 -10 9 -21 12 -24 7 -3 -5 0 -15 8 -21 15 -13 93 -5 102 10 3 5 22 9 42 9 20 0 43 4 51 9 26 17 -5 18 -69 2z"/> <path d="M1189 250 c0 -8 -2 -23 -4 -33 -2 -11 2 -16 8 -14 16 5 21 37 8 50 -8 8 -11 7 -12 -3z"/> <path d="M1236 218 c10 -64 23 -81 24 -31 0 46 -8 73 -21 73 -5 0 -6 -19 -3 -42z"/> <path d="M583 160 c0 -25 2 -35 4 -22 2 12 2 32 0 45 -2 12 -4 2 -4 -23z"/> <path d="M1040 164 c25 -7 54 -13 65 -13 11 0 -2 7 -30 14 -65 18 -93 18 -35 -1z"/> <path d="M1120 136 c0 -2 11 -6 25 -8 14 -3 25 -1 25 3 0 5 -11 9 -25 9 -14 0 -25 -2 -25 -4z"/> <path d="M1216 48 c7 -47 11 -55 20 -45 9 9 -6 87 -17 87 -5 0 -6 -18 -3 -42z"/> <path d="M925 40 c-4 -17 -5 -34 -2 -36 2 -3 7 10 11 27 8 42 0 50 -9 9z"/> </g> </svg> 