 <svg version="1.0" xmlns="http://www.w3.org/2000/svg" width="204.000000pt" height="192.000000pt" viewBox="0 0 204.000000 192.000000" preserveAspectRatio="xMidYMid meet">  <g transform="translate(0.000000,192.000000) scale(0.100000,-0.100000)" fill="#0acd17" stroke="none"> <path d="M976 1785 c-58 -80 -57 -78 -40 -165 3 -13 7 -52 9 -85 2 -33 6 -95 9 -137 6 -72 5 -78 -13 -78 -13 0 -25 16 -40 52 -38 91 -113 209 -174 275 -33 35 -63 63 -67 63 -4 0 -29 -40 -54 -90 -42 -80 -45 -90 -28 -90 23 0 63 -37 110 -100 18 -25 36 -45 40 -45 3 0 7 -8 7 -17 1 -10 9 -26 17 -35 9 -10 21 -29 28 -43 8 -14 -23 9 -70 53 -77 71 -192 143 -210 132 -10 -6 -37 -87 -45 -135 -5 -33 -3 -36 35 -53 22 -10 44 -16 50 -12 5 3 10 -2 10 -12 0 -21 75 -77 90 -68 5 3 10 -1 10 -9 0 -9 11 -26 25 -38 38 -33 30 -38 -26 -18 -27 10 -86 22 -129 26 l-78 6 -4 -63 c-1 -35 -1 -81 1 -101 3 -34 6 -38 31 -38 16 0 36 7 44 16 15 14 17 14 22 0 4 -11 19 -16 48 -16 23 0 47 -5 53 -11 6 -6 27 -11 47 -12 20 -1 36 -4 36 -8 0 -4 11 -10 25 -13 42 -11 48 -38 18 -82 -33 -49 -56 -104 -44 -104 5 0 12 13 16 30 4 16 10 30 14 30 12 0 45 73 46 105 1 17 -3 36 -8 43 -10 13 -23 66 -36 145 -6 39 -4 53 12 80 11 17 23 45 26 60 7 31 25 40 141 74 30 9 68 27 83 40 16 13 34 23 42 23 7 0 18 7 25 15 7 8 21 15 31 15 17 0 36 34 30 55 -1 5 5 15 15 22 12 9 15 20 11 43 -4 17 -2 30 3 30 6 0 10 -4 10 -10 0 -5 7 -10 15 -10 8 0 15 5 15 10 0 6 11 15 24 19 22 9 35 40 40 97 1 11 8 27 16 36 13 13 16 13 32 -8 10 -12 18 -27 18 -33 0 -6 4 -11 9 -11 13 0 28 -50 45 -148 8 -46 20 -90 26 -97 13 -15 5 -71 -11 -80 -5 -4 -14 5 -21 19 -15 34 -53 36 -45 4 20 -79 19 -106 -3 -136 -16 -22 -21 -39 -17 -59 3 -18 -4 -55 -19 -98 -13 -39 -42 -126 -65 -195 -22 -69 -49 -145 -59 -170 -11 -25 -26 -76 -35 -115 -21 -86 -70 -206 -92 -222 -9 -7 -30 -13 -45 -13 -16 0 -46 -9 -68 -20 -47 -24 -59 -25 -97 -6 -15 8 -41 20 -57 28 -16 7 -35 27 -43 46 -7 17 -18 32 -25 32 -7 0 -9 17 -5 55 3 30 2 57 -2 59 -4 3 -8 -22 -9 -54 -1 -32 2 -61 8 -65 6 -3 16 -21 24 -38 13 -31 20 -36 99 -71 49 -21 69 -20 114 4 21 11 48 20 60 20 53 0 70 17 101 97 17 43 35 98 41 123 11 42 40 131 97 296 24 69 25 70 69 82 25 7 45 17 45 23 0 6 8 8 18 5 9 -3 30 1 46 9 15 8 45 15 65 15 20 0 41 4 47 10 6 6 23 5 47 -2 28 -9 40 -9 49 0 16 16 12 173 -4 184 -24 16 -159 -5 -243 -38 -15 -6 -12 1 13 29 17 21 32 42 32 47 0 5 6 7 13 5 16 -7 87 52 87 71 0 8 5 12 11 8 8 -5 46 9 88 33 6 4 -30 147 -41 160 -12 15 -58 0 -116 -40 -24 -16 -45 -27 -47 -25 -2 1 -6 15 -10 29 -5 22 0 33 30 63 19 20 42 36 50 36 8 0 15 5 15 11 0 15 -82 169 -90 169 -3 0 -17 -11 -32 -25 -27 -25 -48 -32 -48 -17 0 4 -9 18 -18 30 l-19 24 -29 -30 c-17 -16 -28 -34 -26 -40 1 -5 -2 -13 -7 -17 -6 -3 -11 -11 -11 -17 0 -6 7 -5 17 3 15 13 16 11 9 -16 -10 -38 -10 -39 -35 -26 -17 10 -24 8 -38 -9 -10 -11 -23 -20 -29 -20 -14 0 -24 43 -14 62 4 7 10 32 13 55 4 38 1 47 -43 105 -76 101 -70 100 -134 13z m224 -235 c0 -5 -2 -10 -4 -10 -3 0 -8 5 -11 10 -3 6 -1 10 4 10 6 0 11 -4 11 -10z m-53 -32 c-3 -8 -6 -5 -6 6 -1 11 2 17 5 13 3 -3 4 -12 1 -19z"></path> <path d="M993 1153 c-15 -5 -17 -39 -3 -48 6 -3 10 -26 10 -50 0 -43 0 -43 -40 -50 -30 -5 -40 -11 -38 -23 2 -11 -3 -16 -14 -16 -13 1 -18 -5 -18 -22 0 -33 13 -30 54 12 47 48 66 41 66 -25 0 -46 -2 -50 -29 -56 -53 -11 -81 -66 -61 -116 8 -19 22 -31 39 -35 47 -10 51 -13 52 -36 1 -17 2 -18 6 -5 6 22 23 22 23 -1 0 -11 -15 -24 -40 -35 -67 -29 -63 -67 9 -81 29 -5 32 -4 21 9 -7 8 -24 15 -37 15 -29 0 -27 23 3 29 28 5 74 40 74 56 0 7 -11 27 -25 43 -19 23 -25 41 -25 78 0 47 1 50 40 66 42 17 57 48 46 90 -9 35 -20 47 -46 51 -32 5 -41 41 -23 86 7 19 12 40 9 47 -5 13 -35 23 -53 17z m86 -205 c14 -24 14 -28 -3 -47 -11 -12 -27 -21 -38 -21 -15 0 -18 8 -18 51 0 46 2 50 22 47 12 -2 29 -15 37 -30z m-69 -153 c0 -41 -2 -45 -25 -45 -18 0 -29 8 -37 26 -11 23 -10 29 11 45 38 31 51 25 51 -26z"></path> <path d="M110 816 c0 -9 7 -12 20 -9 23 6 27 -12 5 -21 -23 -8 -18 -33 8 -40 20 -6 20 -7 5 -17 -29 -17 -20 -29 12 -18 29 11 42 39 18 39 -7 0 -19 4 -27 9 -12 8 -12 12 2 26 27 26 21 45 -13 45 -19 0 -30 -5 -30 -14z"></path> <path d="M1876 823 c-13 -13 -6 -32 10 -26 13 5 15 2 9 -15 -3 -12 -2 -22 3 -22 6 0 12 15 14 33 3 26 0 33 -13 34 -10 1 -20 -1 -23 -4z"></path> <path d="M674 693 c-19 -45 -14 -124 9 -147 22 -23 34 -20 13 3 -22 24 -32 95 -18 124 14 31 22 57 17 57 -3 0 -12 -17 -21 -37z"></path> <path d="M1860 713 c0 -7 -7 -13 -15 -13 -8 0 -15 -4 -15 -9 0 -10 24 -21 47 -21 13 0 13 3 3 15 -11 13 -10 18 4 28 16 12 16 13 -3 13 -12 0 -21 -6 -21 -13z"></path> <path d="M158 692 c-10 -2 -18 -8 -18 -13 0 -13 27 -11 35 2 9 13 4 16 -17 11z"></path> <path d="M190 690 c0 -7 3 -10 7 -7 3 4 3 10 0 14 -4 3 -7 0 -7 -7z"></path> <path d="M165 645 c-20 -14 -20 -14 3 -15 24 0 29 -19 10 -38 -9 -9 -8 -12 5 -12 25 0 31 24 15 54 -13 24 -15 25 -33 11z"></path> <path d="M1825 630 c-4 -12 -4 -24 -1 -27 3 -4 6 2 6 11 0 14 5 17 21 13 13 -3 19 -1 16 6 -7 21 -35 19 -42 -3z"></path> <path d="M1840 606 c0 -9 5 -16 10 -16 6 0 10 4 10 9 0 6 -4 13 -10 16 -5 3 -10 -1 -10 -9z"></path> <path d="M200 560 c-8 -5 -12 -12 -9 -15 8 -8 39 5 39 16 0 11 -11 11 -30 -1z"></path> <path d="M1791 552 c-12 -23 2 -47 23 -39 20 8 22 57 1 57 -8 0 -19 -8 -24 -18z m29 -12 c0 -5 -4 -10 -10 -10 -5 0 -10 5 -10 10 0 6 5 10 10 10 6 0 10 -4 10 -10z"></path> <path d="M230 508 c0 -19 -2 -20 -10 -8 -5 8 -10 10 -10 4 0 -6 6 -17 14 -23 17 -14 39 9 30 33 -9 23 -24 20 -24 -6z m17 -15 c-4 -3 -7 0 -7 7 0 7 3 10 7 7 3 -4 3 -10 0 -14z"></path> <path d="M1756 482 c-2 -4 7 -9 20 -10 15 -1 22 2 19 8 -7 12 -32 13 -39 2z"></path> <path d="M261 454 c-10 -12 -10 -19 -2 -27 8 -8 11 -8 11 1 0 7 7 12 15 12 8 0 15 7 15 15 0 19 -21 19 -39 -1z"></path> <path d="M1721 461 c3 -8 16 -21 29 -30 18 -12 22 -13 19 -2 -3 8 -16 21 -29 30 -18 12 -22 13 -19 2z"></path> <path d="M287 407 c-6 -15 13 -43 30 -42 20 0 25 13 13 34 -12 24 -35 28 -43 8z m33 -11 c0 -3 -5 -8 -12 -12 -7 -4 -8 -3 -4 4 7 12 16 16 16 8z"></path> <path d="M1700 405 c-11 -13 -10 -14 4 -9 9 3 16 1 16 -5 0 -6 -5 -11 -11 -11 -5 0 -7 -5 -3 -11 4 -8 13 -4 25 12 13 17 14 26 6 31 -17 11 -23 10 -37 -7z"></path> <path d="M335 349 c-10 -15 -2 -19 23 -12 12 3 19 9 16 14 -7 12 -31 11 -39 -2z"></path> <path d="M1644 345 c-5 -12 -10 -13 -20 -4 -22 18 -16 -6 6 -26 20 -18 21 -18 42 2 21 22 18 43 -8 43 -8 0 -17 -7 -20 -15z m26 -15 c0 -5 -4 -10 -10 -10 -5 0 -10 5 -10 10 0 6 5 10 10 10 6 0 10 -4 10 -10z"></path> <path d="M393 313 c-17 -6 -16 -21 1 -38 12 -12 16 -12 26 0 7 8 10 22 6 30 -6 15 -12 17 -33 8z m17 -13 c0 -5 -5 -10 -11 -10 -5 0 -7 5 -4 10 3 6 8 10 11 10 2 0 4 -4 4 -10z"></path> <path d="M1605 290 c-3 -5 -2 -10 4 -10 5 0 13 5 16 10 3 6 2 10 -4 10 -5 0 -13 -4 -16 -10z"></path> <path d="M439 264 c-15 -19 -4 -31 15 -15 18 15 29 0 19 -26 -6 -16 -5 -16 10 -4 23 18 21 26 -7 44 -21 14 -26 15 -37 1z"></path> <path d="M1523 245 c-30 -21 -31 -24 -17 -41 14 -18 15 -18 9 4 -7 24 4 29 24 10 11 -11 13 -9 8 10 -5 21 -3 23 20 17 23 -5 25 -4 14 9 -17 20 -19 19 -58 -9z"></path> <path d="M530 240 c0 -7 3 -10 7 -7 3 4 3 10 0 14 -4 3 -7 0 -7 -7z"></path> <path d="M540 200 c-11 -20 3 -30 15 -10 9 15 27 1 21 -16 -3 -7 -1 -16 3 -19 5 -3 12 2 15 11 8 21 9 20 -19 38 -23 15 -25 15 -35 -4z"></path> <path d="M1440 200 c-13 -8 -12 -10 3 -10 9 0 17 -5 17 -11 0 -5 -4 -7 -10 -4 -5 3 -10 1 -10 -4 0 -13 20 -14 39 -2 12 8 12 12 2 25 -16 18 -21 19 -41 6z"></path> <path d="M621 168 c0 -9 -4 -23 -7 -32 -9 -22 9 -20 37 5 24 20 24 20 2 16 -15 -3 -23 1 -26 12 -4 15 -5 15 -6 -1z"></path> <path d="M1345 158 c-16 -6 -31 -12 -33 -13 -5 -5 11 -35 19 -35 4 0 6 7 3 15 -7 18 7 20 24 3 9 -9 12 -7 12 10 0 26 15 29 24 6 4 -9 9 -15 11 -12 9 8 -6 38 -19 37 -6 0 -24 -5 -41 -11z"></path> <path d="M729 133 c-5 -14 -7 -29 -3 -32 4 -3 9 0 11 7 3 6 12 12 21 12 14 0 14 2 3 9 -11 7 -10 10 5 13 17 3 16 5 -4 10 -18 5 -25 1 -33 -19z"></path> <path d="M1200 118 c0 -15 5 -30 10 -33 13 -8 13 25 0 45 -8 12 -10 9 -10 -12z"></path> <path d="M1262 133 c-10 -4 -8 -9 5 -20 17 -13 17 -14 1 -9 -10 3 -18 1 -18 -4 0 -5 11 -9 25 -8 14 1 25 8 25 14 0 16 -23 32 -38 27z"></path> <path d="M830 110 c13 -8 12 -10 -3 -10 -26 0 -16 -24 11 -28 16 -3 22 2 22 16 0 11 -7 23 -16 26 -24 9 -31 7 -14 -4z"></path> <path d="M886 95 c-8 -31 0 -47 10 -21 8 20 34 21 34 1 0 -8 5 -15 10 -15 6 0 10 9 10 20 0 13 -7 20 -18 20 -10 0 -23 5 -29 11 -7 7 -12 3 -17 -16z"></path> <path d="M1143 103 c17 -4 17 -5 1 -17 -12 -9 -14 -15 -6 -20 7 -4 12 -3 12 2 0 6 9 8 19 5 16 -4 19 -1 14 16 -4 15 -13 21 -32 20 -18 -1 -20 -3 -8 -6z"></path> <path d="M988 93 c6 -2 12 -9 12 -14 0 -4 -7 -6 -15 -3 -8 4 -15 1 -15 -5 0 -6 11 -11 25 -11 18 0 25 5 25 20 0 14 -6 20 -22 19 -13 0 -17 -3 -10 -6z"></path> <path d="M1050 90 c0 -13 11 -13 30 0 12 8 11 10 -7 10 -13 0 -23 -4 -23 -10z"></path> <path d="M1070 70 c0 -5 7 -10 15 -10 8 0 15 5 15 10 0 6 -7 10 -15 10 -8 0 -15 -4 -15 -10z"></path> </g> </svg> 